<svg width="32" height="32" viewBox="0 0 32 32" fill="none" xmlns="http://www.w3.org/2000/svg">
<path d="M9.36685 17.7199L13.1469 13.0533C11.2926 12.5848 9.35794 12.5302 7.48019 12.8933C5.40019 13.4066 5.07352 17.3333 5.04019 19.1933C5.03786 19.2965 5.06314 19.3985 5.11341 19.4887C5.16368 19.5789 5.23711 19.654 5.32613 19.7064C5.41516 19.7587 5.51653 19.7863 5.61979 19.7863C5.72305 19.7864 5.82445 19.7589 5.91352 19.7066L9.36685 17.7199Z" fill="#FF6242"/>
<path d="M7.49343 14.6668C8.94687 14.3683 10.4427 14.3389 11.9068 14.5801L13.1468 13.0601C11.2925 12.5916 9.35785 12.537 7.4801 12.9001C5.4001 13.4068 5.07343 17.3334 5.0401 19.1934C5.03843 19.307 5.07094 19.4185 5.13343 19.5134C5.33343 17.5534 5.8601 15.0734 7.49343 14.6668Z" fill="#FF866E"/>
<path d="M9.36685 17.7199L13.1469 13.0533C11.2926 12.5848 9.35794 12.5302 7.48019 12.8933C5.40019 13.4066 5.07352 17.3333 5.04019 19.1933C5.03786 19.2965 5.06314 19.3985 5.11341 19.4887C5.16368 19.5789 5.23711 19.654 5.32613 19.7064C5.41516 19.7587 5.51653 19.7863 5.61979 19.7863C5.72305 19.7864 5.82445 19.7589 5.91352 19.7066L9.36685 17.7199Z" stroke="#45413C" stroke-width="0.666667" stroke-linecap="round" stroke-linejoin="round"/>
<path d="M13.9069 22.2663L18.5736 18.4863C19.0421 20.3383 19.0968 22.2708 18.7336 24.1463C18.2469 26.2263 14.3469 26.553 12.4603 26.5863C12.357 26.5887 12.255 26.5634 12.1648 26.5131C12.0746 26.4628 11.9995 26.3894 11.9472 26.3004C11.8948 26.2114 11.8672 26.11 11.8672 26.0067C11.8671 25.9035 11.8947 25.8021 11.9469 25.713L13.9069 22.2663Z" fill="#FF6242"/>
<path d="M16.9399 24.1397C17.2423 22.6844 17.2717 21.1856 17.0266 19.7197L18.5466 18.4863C19.0152 20.3383 19.0698 22.2708 18.7066 24.1463C18.2199 26.2263 14.3199 26.553 12.4333 26.5863C12.3198 26.5872 12.2085 26.5547 12.1133 26.493C14.0733 26.3197 16.5533 25.7663 16.9399 24.1397Z" fill="#FF866E"/>
<path d="M13.9069 22.2663L18.5736 18.4863C19.0421 20.3383 19.0968 22.2708 18.7336 24.1463C18.2469 26.2263 14.3469 26.553 12.4603 26.5863C12.357 26.5887 12.255 26.5634 12.1648 26.5131C12.0746 26.4628 11.9995 26.3894 11.9472 26.3004C11.8948 26.2114 11.8672 26.11 11.8672 26.0067C11.8671 25.9035 11.8947 25.8021 11.9469 25.713L13.9069 22.2663Z" stroke="#45413C" stroke-width="0.666667" stroke-linecap="round" stroke-linejoin="round"/>
<path d="M26.3197 14.3732C29.933 10.5732 28.793 5.88656 28.2263 4.23989C28.1613 4.04414 28.0518 3.86614 27.9063 3.71989C27.7606 3.57709 27.5854 3.46788 27.393 3.39989C25.7463 2.83323 21.053 1.69323 17.253 5.33323C12.5597 9.77323 9.33301 17.6666 9.33301 17.6666L13.9997 22.3332C13.9997 22.3332 21.853 19.0666 26.3197 14.3732Z" fill="#E8F4FA"/>
<path d="M18.6997 7.91323C22.3863 4.39989 26.9063 5.37989 28.6997 5.95323C28.5979 5.37152 28.4508 4.79867 28.2597 4.23989C28.1915 4.04159 28.0774 3.86217 27.9268 3.71621C27.7762 3.57026 27.5933 3.46189 27.393 3.39989C25.7463 2.83323 21.053 1.69323 17.253 5.33323C12.5597 9.77323 9.33301 17.6666 9.33301 17.6666L11.1263 19.4599C12.0797 17.3332 14.913 11.5132 18.6997 7.91323Z" fill="white"/>
<path d="M26.3197 14.3732C29.933 10.5732 28.793 5.88656 28.2263 4.23989C28.1613 4.04414 28.0518 3.86614 27.9063 3.71989C27.7606 3.57709 27.5854 3.46788 27.393 3.39989C25.7463 2.83323 21.053 1.69323 17.253 5.33323C12.5597 9.77323 9.33301 17.6666 9.33301 17.6666L13.9997 22.3332C13.9997 22.3332 21.853 19.0666 26.3197 14.3732Z" stroke="#45413C" stroke-width="0.666667" stroke-linecap="round" stroke-linejoin="round"/>
<path opacity="0.15" d="M12.1465 29.4736C12.1465 29.7388 12.8489 29.9932 14.0991 30.1807C15.3493 30.3683 17.045 30.4736 18.8132 30.4736C20.5813 30.4736 22.277 30.3683 23.5272 30.1807C24.7774 29.9932 25.4798 29.7388 25.4798 29.4736C25.4798 29.2084 24.7774 28.9541 23.5272 28.7665C22.277 28.579 20.5813 28.4736 18.8132 28.4736C17.045 28.4736 15.3493 28.579 14.0991 28.7665C12.8489 28.9541 12.1465 29.2084 12.1465 29.4736Z" fill="#45413C"/>
<path d="M15.1338 17.1C15.1823 17.0141 15.2014 16.9148 15.1883 16.817C15.1752 16.7193 15.1306 16.6285 15.0613 16.5583C14.9919 16.4882 14.9016 16.4427 14.804 16.4285C14.7064 16.4144 14.6069 16.4324 14.5205 16.48C13.2215 17.1445 12.0285 17.9982 10.9805 19.0133C9.86957 20.1313 8.99251 21.4594 8.40047 22.92C8.3826 22.9613 8.37743 23.007 8.38562 23.0512C8.3938 23.0955 8.41497 23.1363 8.44643 23.1684C8.47789 23.2006 8.51822 23.2227 8.56227 23.2319C8.60632 23.2411 8.65211 23.2369 8.6938 23.22C10.1522 22.6359 11.4801 21.768 12.6005 20.6666C13.6193 19.6117 14.4733 18.4094 15.1338 17.1Z" fill="#FF6242" stroke="#45413C" stroke-width="0.666667" stroke-linecap="round" stroke-linejoin="round"/>
<path d="M18.8271 9.14633C18.8271 10.117 19.2128 11.048 19.8991 11.7343C20.5855 12.4207 21.5165 12.8063 22.4871 12.8063C23.4578 12.8063 24.3888 12.4207 25.0752 11.7343C25.7615 11.048 26.1471 10.117 26.1471 9.14633C26.1471 8.17564 25.7615 7.2447 25.0752 6.55832C24.3888 5.87193 23.4578 5.48633 22.4871 5.48633C21.5165 5.48633 20.5855 5.87193 19.8991 6.55832C19.2128 7.2447 18.8271 8.17564 18.8271 9.14633Z" fill="#C0DCEB" stroke="#45413C" stroke-width="0.666667" stroke-linecap="round" stroke-linejoin="round"/>
<path d="M19.9736 9.12708C19.9736 9.45976 20.0392 9.78919 20.1665 10.0965C20.2938 10.4039 20.4804 10.6832 20.7156 10.9184C20.9509 11.1537 21.2301 11.3403 21.5375 11.4676C21.8449 11.5949 22.1743 11.6604 22.507 11.6604C22.8396 11.6604 23.1691 11.5949 23.4764 11.4676C23.7838 11.3403 24.0631 11.1537 24.2983 10.9184C24.5335 10.6832 24.7201 10.4039 24.8475 10.0965C24.9748 9.78919 25.0403 9.45976 25.0403 9.12708C25.0403 8.7944 24.9748 8.46498 24.8475 8.15762C24.7201 7.85026 24.5335 7.57099 24.2983 7.33575C24.0631 7.1005 23.7838 6.9139 23.4764 6.78659C23.1691 6.65928 22.8396 6.59375 22.507 6.59375C22.1743 6.59375 21.8449 6.65928 21.5375 6.78659C21.2301 6.9139 20.9509 7.1005 20.7156 7.33575C20.4804 7.57099 20.2938 7.85026 20.1665 8.15762C20.0392 8.46498 19.9736 8.7944 19.9736 9.12708Z" fill="#00B8F0"/>
<path d="M20.7137 7.33356C20.4779 7.56887 20.2908 7.8484 20.1631 8.15612C20.0354 8.46385 19.9697 8.79374 19.9697 9.12689C19.9697 9.46005 20.0354 9.78994 20.1631 10.0977C20.2908 10.4054 20.4779 10.6849 20.7137 10.9202C20.8836 11.0824 21.0741 11.2213 21.2804 11.3336L23.6471 6.87356C23.1726 6.62877 22.6326 6.54139 22.1052 6.6241C21.5778 6.7068 21.0904 6.95529 20.7137 7.33356Z" fill="#4ACFFF"/>
<path d="M19.9736 9.12708C19.9736 9.45976 20.0392 9.78919 20.1665 10.0965C20.2938 10.4039 20.4804 10.6832 20.7156 10.9184C20.9509 11.1537 21.2301 11.3403 21.5375 11.4676C21.8449 11.5949 22.1743 11.6604 22.507 11.6604C22.8396 11.6604 23.1691 11.5949 23.4764 11.4676C23.7838 11.3403 24.0631 11.1537 24.2983 10.9184C24.5335 10.6832 24.7201 10.4039 24.8475 10.0965C24.9748 9.78919 25.0403 9.45976 25.0403 9.12708C25.0403 8.7944 24.9748 8.46498 24.8475 8.15762C24.7201 7.85026 24.5335 7.57099 24.2983 7.33575C24.0631 7.1005 23.7838 6.9139 23.4764 6.78659C23.1691 6.65928 22.8396 6.59375 22.507 6.59375C22.1743 6.59375 21.8449 6.65928 21.5375 6.78659C21.2301 6.9139 20.9509 7.1005 20.7156 7.33575C20.4804 7.57099 20.2938 7.85026 20.1665 8.15762C20.0392 8.46498 19.9736 8.7944 19.9736 9.12708Z" stroke="#45413C" stroke-width="0.666667" stroke-linecap="round" stroke-linejoin="round"/>
<path d="M7.55982 27.6467C7.09315 28.1134 4.11982 29.12 2.61315 29.6067C2.33315 29.7 1.94649 29.2934 2.01982 29.0134C2.50649 27.5134 3.51315 24.54 4.01982 24.0667C4.65315 23.4 6.30649 23.4 7.29315 24.3734C8.27982 25.3467 8.19315 27.0134 7.55982 27.6467Z" fill="#FF8A14" stroke="#45413C" stroke-width="0.666667" stroke-linecap="round" stroke-linejoin="round"/>
<path d="M6.75336 26.5267C6.42002 26.8533 5.04002 27.1933 4.75336 26.9C4.46669 26.6066 4.80002 25.2066 5.13335 24.9C5.35421 24.7492 5.62438 24.6887 5.88844 24.7309C6.1525 24.773 6.39041 24.9146 6.55335 25.1266C6.75706 25.2918 6.89085 25.5278 6.92794 25.7874C6.96503 26.047 6.90267 26.3111 6.75336 26.5267Z" fill="#FFE500" stroke="#45413C" stroke-width="0.666667" stroke-linecap="round" stroke-linejoin="round"/>
<path d="M28.8795 15.7937L29.4129 16.8003C29.434 16.8402 29.4644 16.8743 29.5016 16.8998C29.5387 16.9253 29.5815 16.9415 29.6262 16.947L30.7529 17.0803C30.8047 17.0867 30.8537 17.1073 30.8943 17.14C30.935 17.1727 30.9658 17.2161 30.9831 17.2653C31.0004 17.3145 31.0036 17.3676 30.9924 17.4185C30.9812 17.4695 30.9559 17.5163 30.9195 17.5537L30.1262 18.367C30.0936 18.3982 30.0697 18.4374 30.0569 18.4806C30.044 18.5239 30.0426 18.5697 30.0529 18.6137L30.2729 19.727C30.2826 19.7777 30.2782 19.8301 30.26 19.8784C30.2419 19.9267 30.2108 19.969 30.1701 20.0007C30.1294 20.0325 30.0807 20.0523 30.0294 20.0581C29.9782 20.064 29.9263 20.0555 29.8795 20.0337L28.8595 19.527C28.8191 19.507 28.7746 19.4966 28.7295 19.4966C28.6844 19.4966 28.64 19.507 28.5995 19.527L27.6062 20.087C27.5602 20.11 27.5088 20.1202 27.4575 20.1166C27.4062 20.1129 27.3568 20.0955 27.3146 20.0662C27.2723 20.0369 27.2387 19.9967 27.2173 19.9499C27.1959 19.9032 27.1874 19.8515 27.1929 19.8003L27.3329 18.667C27.339 18.623 27.3344 18.5781 27.3193 18.5363C27.3042 18.4945 27.2791 18.4569 27.2462 18.427L26.4395 17.667C26.4016 17.6316 26.3743 17.5864 26.3606 17.5365C26.3469 17.4865 26.3473 17.4337 26.3618 17.3839C26.3763 17.3342 26.4043 17.2894 26.4428 17.2546C26.4812 17.2199 26.5286 17.1965 26.5795 17.187L27.6995 16.9937C27.7439 16.987 27.786 16.9696 27.822 16.9428C27.8581 16.9161 27.887 16.8809 27.9062 16.8403L28.3862 15.807C28.4071 15.7598 28.441 15.7195 28.484 15.6908C28.5269 15.662 28.577 15.646 28.6287 15.6446C28.6803 15.6432 28.7313 15.6565 28.7757 15.6829C28.8201 15.7093 28.8561 15.7477 28.8795 15.7937Z" fill="#FFE500"/>
<path d="M27.0195 18.2069L27.7262 18.0803C27.7708 18.0742 27.8131 18.057 27.8493 18.0302C27.8854 18.0034 27.9142 17.9679 27.9329 17.9269L28.4129 16.8936C28.4362 16.8473 28.4719 16.8084 28.5161 16.7813C28.5602 16.7541 28.611 16.7397 28.6629 16.7397C28.7147 16.7397 28.7655 16.7541 28.8097 16.7813C28.8538 16.8084 28.8895 16.8473 28.9129 16.8936L29.4395 17.9003C29.4607 17.9401 29.4911 17.9742 29.5282 17.9997C29.5654 18.0253 29.6081 18.0415 29.6529 18.0469L30.3662 18.1336L30.9195 17.5669C30.9559 17.5296 30.9812 17.4828 30.9924 17.4318C31.0036 17.3809 31.0004 17.3278 30.9831 17.2786C30.9658 17.2293 30.935 17.1859 30.8943 17.1533C30.8537 17.1206 30.8047 17.0999 30.7529 17.0936L29.6262 16.9603C29.5815 16.9548 29.5387 16.9386 29.5016 16.9131C29.4644 16.8875 29.434 16.8534 29.4129 16.8136L28.8795 15.8069C28.8573 15.7604 28.8223 15.721 28.7787 15.6935C28.735 15.666 28.6845 15.6514 28.6329 15.6514C28.5813 15.6514 28.5307 15.666 28.4871 15.6935C28.4434 15.721 28.4084 15.7604 28.3862 15.8069L27.9062 16.8403C27.887 16.8808 27.8581 16.916 27.822 16.9428C27.786 16.9695 27.7439 16.987 27.6995 16.9936L26.5795 17.1869C26.5286 17.1964 26.4812 17.2198 26.4428 17.2546C26.4043 17.2893 26.3763 17.3341 26.3618 17.3839C26.3473 17.4336 26.3469 17.4864 26.3606 17.5364C26.3743 17.5864 26.4016 17.6316 26.4395 17.6669L27.0195 18.2069Z" fill="#FFF48C"/>
<path d="M28.8795 15.7937L29.4129 16.8003C29.434 16.8402 29.4644 16.8743 29.5016 16.8998C29.5387 16.9253 29.5815 16.9415 29.6262 16.947L30.7529 17.0803C30.8047 17.0867 30.8537 17.1073 30.8943 17.14C30.935 17.1727 30.9658 17.2161 30.9831 17.2653C31.0004 17.3145 31.0036 17.3676 30.9924 17.4185C30.9812 17.4695 30.9559 17.5163 30.9195 17.5537L30.1262 18.367C30.0936 18.3982 30.0697 18.4374 30.0569 18.4806C30.044 18.5239 30.0426 18.5697 30.0529 18.6137L30.2729 19.727C30.2826 19.7777 30.2782 19.8301 30.26 19.8784C30.2419 19.9267 30.2108 19.969 30.1701 20.0007C30.1294 20.0325 30.0807 20.0523 30.0294 20.0581C29.9782 20.064 29.9263 20.0555 29.8795 20.0337L28.8595 19.527C28.8191 19.507 28.7746 19.4966 28.7295 19.4966C28.6844 19.4966 28.64 19.507 28.5995 19.527L27.6062 20.087C27.5602 20.11 27.5088 20.1202 27.4575 20.1166C27.4062 20.1129 27.3568 20.0955 27.3146 20.0662C27.2723 20.0369 27.2387 19.9967 27.2173 19.9499C27.1959 19.9032 27.1874 19.8515 27.1929 19.8003L27.3329 18.667C27.339 18.623 27.3344 18.5781 27.3193 18.5363C27.3042 18.4945 27.2791 18.4569 27.2462 18.427L26.4395 17.667C26.4016 17.6316 26.3743 17.5864 26.3606 17.5365C26.3469 17.4865 26.3473 17.4337 26.3618 17.3839C26.3763 17.3342 26.4043 17.2894 26.4428 17.2546C26.4812 17.2199 26.5286 17.1965 26.5795 17.187L27.6995 16.9937C27.7439 16.987 27.786 16.9696 27.822 16.9428C27.8581 16.9161 27.887 16.8809 27.9062 16.8403L28.3862 15.807C28.4071 15.7598 28.441 15.7195 28.484 15.6908C28.5269 15.662 28.577 15.646 28.6287 15.6446C28.6803 15.6432 28.7313 15.6565 28.7757 15.6829C28.8201 15.7093 28.8561 15.7477 28.8795 15.7937Z" stroke="#45413C" stroke-width="0.666667" stroke-linecap="round" stroke-linejoin="round"/>
<path d="M21.1604 27.0604L21.3337 27.9604C21.3421 27.9956 21.3584 28.0283 21.3816 28.0561C21.4047 28.0839 21.434 28.1059 21.4671 28.1204L22.3137 28.4804C22.35 28.4997 22.3803 28.5286 22.4014 28.5638C22.4226 28.599 22.4337 28.6393 22.4337 28.6804C22.4337 28.7215 22.4226 28.7618 22.4014 28.797C22.3803 28.8323 22.35 28.8611 22.3137 28.8804L21.5137 29.3337C21.4817 29.3506 21.4545 29.3754 21.4346 29.4057C21.4148 29.4361 21.403 29.4709 21.4004 29.5071L21.3337 30.4204C21.3301 30.4627 21.3146 30.5031 21.2891 30.5371C21.2636 30.571 21.2291 30.5971 21.1895 30.6124C21.1499 30.6277 21.1068 30.6315 21.0651 30.6235C21.0235 30.6155 20.9849 30.5959 20.9537 30.5671L20.2871 29.9471C20.2618 29.9208 20.2298 29.9019 20.1945 29.8925C20.1593 29.8831 20.1221 29.8835 20.0871 29.8937L19.1937 30.0937C19.153 30.1022 19.1107 30.0992 19.0715 30.0852C19.0323 30.0712 18.9978 30.0466 18.9716 30.0143C18.9454 29.9819 18.9287 29.943 18.9232 29.9017C18.9177 29.8605 18.9236 29.8185 18.9404 29.7804L19.3337 28.9471C19.3519 28.9157 19.3614 28.88 19.3614 28.8437C19.3614 28.8075 19.3519 28.7718 19.3337 28.7404L18.8671 27.9537C18.8458 27.9175 18.8351 27.8761 18.836 27.8341C18.8369 27.7921 18.8495 27.7512 18.8723 27.7159C18.8951 27.6807 18.9273 27.6525 18.9652 27.6344C19.0031 27.6164 19.0453 27.6092 19.0871 27.6137L19.9937 27.7204C20.0304 27.7234 20.0673 27.7185 20.1018 27.7058C20.1364 27.6931 20.1677 27.6731 20.1937 27.6471L20.7937 26.9804C20.8206 26.9549 20.8532 26.9363 20.8889 26.9264C20.9246 26.9164 20.9621 26.9153 20.9983 26.9232C21.0345 26.9311 21.0682 26.9477 21.0964 26.9716C21.1247 26.9956 21.1467 27.026 21.1604 27.0604Z" fill="#FFE500"/>
<path d="M19.1737 28.4996L19.7471 28.5662C19.7838 28.5707 19.8212 28.5665 19.8559 28.5537C19.8907 28.541 19.922 28.5201 19.9471 28.4929L20.5471 27.8262C20.5746 27.7943 20.6105 27.7706 20.6507 27.7579C20.6909 27.7452 20.7338 27.744 20.7747 27.7544C20.8156 27.7648 20.8527 27.7864 20.882 27.8167C20.9113 27.8471 20.9315 27.885 20.9404 27.9262L21.1204 28.8262C21.1259 28.8616 21.1404 28.8949 21.1626 28.9229C21.1848 28.951 21.2139 28.9728 21.2471 28.9862L21.7804 29.2129L22.3404 28.8996C22.3767 28.8802 22.407 28.8514 22.4281 28.8162C22.4492 28.7809 22.4604 28.7406 22.4604 28.6996C22.4604 28.6585 22.4492 28.6182 22.4281 28.5829C22.407 28.5477 22.3767 28.5189 22.3404 28.4996L21.4937 28.1396C21.4606 28.125 21.4314 28.103 21.4082 28.0753C21.3851 28.0475 21.3687 28.0147 21.3604 27.9796L21.1804 27.0796C21.1716 27.0392 21.1519 27.0021 21.1235 26.9721C21.0951 26.9421 21.0591 26.9205 21.0193 26.9095C20.9795 26.8986 20.9374 26.8986 20.8977 26.9098C20.8579 26.921 20.822 26.9428 20.7937 26.9729L20.1937 27.6396C20.1677 27.6656 20.1364 27.6856 20.1018 27.6983C20.0673 27.7109 20.0304 27.7159 19.9937 27.7129L19.0871 27.6062C19.0453 27.6017 19.0031 27.6088 18.9652 27.6269C18.9273 27.6449 18.8951 27.6732 18.8723 27.7084C18.8495 27.7437 18.8369 27.7846 18.836 27.8266C18.8351 27.8686 18.8458 27.91 18.8671 27.9462L19.1737 28.4996Z" fill="#FFF48C"/>
<path d="M21.1604 27.0604L21.3337 27.9604C21.3421 27.9956 21.3584 28.0283 21.3816 28.0561C21.4047 28.0839 21.434 28.1059 21.4671 28.1204L22.3137 28.4804C22.35 28.4997 22.3803 28.5286 22.4014 28.5638C22.4226 28.599 22.4337 28.6393 22.4337 28.6804C22.4337 28.7215 22.4226 28.7618 22.4014 28.797C22.3803 28.8323 22.35 28.8611 22.3137 28.8804L21.5137 29.3337C21.4817 29.3506 21.4545 29.3754 21.4346 29.4057C21.4148 29.4361 21.403 29.4709 21.4004 29.5071L21.3337 30.4204C21.3301 30.4627 21.3146 30.5031 21.2891 30.5371C21.2636 30.571 21.2291 30.5971 21.1895 30.6124C21.1499 30.6277 21.1068 30.6315 21.0651 30.6235C21.0235 30.6155 20.9849 30.5959 20.9537 30.5671L20.2871 29.9471C20.2618 29.9208 20.2298 29.9019 20.1945 29.8925C20.1593 29.8831 20.1221 29.8835 20.0871 29.8937L19.1937 30.0937C19.153 30.1022 19.1107 30.0992 19.0715 30.0852C19.0323 30.0712 18.9978 30.0466 18.9716 30.0143C18.9454 29.9819 18.9287 29.943 18.9232 29.9017C18.9177 29.8605 18.9236 29.8185 18.9404 29.7804L19.3337 28.9471C19.3519 28.9157 19.3614 28.88 19.3614 28.8437C19.3614 28.8075 19.3519 28.7718 19.3337 28.7404L18.8671 27.9537C18.8458 27.9175 18.8351 27.8761 18.836 27.8341C18.8369 27.7921 18.8495 27.7512 18.8723 27.7159C18.8951 27.6807 18.9273 27.6525 18.9652 27.6344C19.0031 27.6164 19.0453 27.6092 19.0871 27.6137L19.9937 27.7204C20.0304 27.7234 20.0673 27.7185 20.1018 27.7058C20.1364 27.6931 20.1677 27.6731 20.1937 27.6471L20.7937 26.9804C20.8206 26.9549 20.8532 26.9363 20.8889 26.9264C20.9246 26.9164 20.9621 26.9153 20.9983 26.9232C21.0345 26.9311 21.0682 26.9477 21.0964 26.9716C21.1247 26.9956 21.1467 27.026 21.1604 27.0604Z" stroke="#45413C" stroke-width="0.666667" stroke-linecap="round" stroke-linejoin="round"/>
<path d="M7.90712 4.6663C7.85266 5.06695 7.68038 5.44239 7.41214 5.74493C7.1439 6.04747 6.7918 6.26348 6.40055 6.36553C6.00931 6.46757 5.59656 6.45105 5.21472 6.31806C4.83289 6.18507 4.49918 5.94161 4.25598 5.61859C4.01278 5.29558 3.87105 4.90758 3.8488 4.50385C3.82654 4.10013 3.92476 3.6989 4.13098 3.35111C4.3372 3.00332 4.64212 2.72465 5.00703 2.5505C5.37193 2.37634 5.78036 2.31455 6.18045 2.37297C6.71235 2.45064 7.1921 2.7351 7.51543 3.16453C7.83875 3.59397 7.97951 4.13366 7.90712 4.6663Z" fill="#9CEB60"/>
<path d="M6.18 3.82631C6.54307 3.88323 6.88402 4.03717 7.16683 4.27186C7.44964 4.50656 7.66379 4.81329 7.78666 5.15965C7.84746 5.00097 7.88778 4.83519 7.90666 4.66631C7.97318 4.13468 7.82787 3.59821 7.50214 3.17282C7.17641 2.74743 6.6964 2.46725 6.16581 2.39283C5.63522 2.31841 5.09665 2.45571 4.66646 2.77508C4.23626 3.09444 3.94897 3.57023 3.86666 4.09965C3.82834 4.44324 3.8741 4.791 4 5.11298C4.16738 4.68579 4.47301 4.32696 4.86814 4.09375C5.26326 3.86054 5.72511 3.76639 6.18 3.82631Z" fill="#C8FFA1"/>
<path d="M7.90712 4.6663C7.85266 5.06695 7.68038 5.44239 7.41214 5.74493C7.1439 6.04747 6.7918 6.26348 6.40055 6.36553C6.00931 6.46757 5.59656 6.45105 5.21472 6.31806C4.83289 6.18507 4.49918 5.94161 4.25598 5.61859C4.01278 5.29558 3.87105 4.90758 3.8488 4.50385C3.82654 4.10013 3.92476 3.6989 4.13098 3.35111C4.3372 3.00332 4.64212 2.72465 5.00703 2.5505C5.37193 2.37634 5.78036 2.31455 6.18045 2.37297C6.71235 2.45064 7.1921 2.7351 7.51543 3.16453C7.83875 3.59397 7.97951 4.13366 7.90712 4.6663Z" stroke="#45413C" stroke-width="0.666667" stroke-linecap="round" stroke-linejoin="round"/>
<path d="M3.90708 4.8664C3.40042 5.21307 2.38042 5.99973 2.66708 6.57307C2.95375 7.1464 9.66042 3.13973 9.42709 2.57307C9.19375 2.0064 7.76042 2.65307 7.25375 2.89307" stroke="#45413C" stroke-width="0.666667" stroke-linecap="round" stroke-linejoin="round"/>
</svg>
