<svg width="25" height="29" viewBox="0 0 25 29" fill="none" xmlns="http://www.w3.org/2000/svg">
<path d="M7.38168 6.89476L7.50835 7.00542L18.823 18.3188C18.9713 18.4669 19.0826 18.6479 19.1478 18.8471C19.213 19.0463 19.2304 19.2581 19.1984 19.4653C19.1665 19.6725 19.0861 19.8692 18.9639 20.0395C18.8417 20.2098 18.6811 20.3488 18.495 20.4454L18.3403 20.5121L4.49368 25.6148C1.89101 26.5748 -0.643653 24.1281 0.147014 21.5294L0.213681 21.3348L5.31501 7.48809C5.38246 7.30467 5.48939 7.13831 5.62826 7.0008C5.76712 6.86329 5.93452 6.75799 6.11859 6.69235C6.30267 6.62671 6.49892 6.60234 6.69346 6.62095C6.888 6.63957 7.07606 6.70073 7.24435 6.80009L7.38168 6.89476ZM19.423 12.6868C20.6377 12.7508 22.303 13.0068 23.751 13.8761C24.0446 14.0501 24.2602 14.3301 24.3535 14.6583C24.4469 14.9866 24.4108 15.3381 24.2528 15.6406C24.0947 15.943 23.8267 16.1733 23.5039 16.2841C23.1811 16.3949 22.8282 16.3777 22.5177 16.2361L22.379 16.1628C21.4697 15.6161 20.307 15.4028 19.283 15.3494C18.8611 15.3261 18.4381 15.3279 18.0163 15.3548L17.595 15.3961C17.2472 15.441 16.8957 15.347 16.6167 15.1346C16.3376 14.9221 16.1535 14.6083 16.1043 14.2611C16.055 13.9138 16.1445 13.5612 16.3534 13.2795C16.5623 12.9978 16.8738 12.8098 17.2203 12.7561C17.9506 12.6619 18.6882 12.6382 19.423 12.6854M22.123 8.97076C22.4627 8.97147 22.7894 9.10183 23.0362 9.33523C23.2831 9.56863 23.4316 9.88746 23.4513 10.2266C23.471 10.5658 23.3606 10.8997 23.1425 11.1601C22.9243 11.4206 22.615 11.588 22.2777 11.6281L22.123 11.6374H21.179C20.8393 11.6367 20.5126 11.5063 20.2658 11.2729C20.0189 11.0395 19.8705 10.7207 19.8507 10.3816C19.831 10.0424 19.9415 9.70851 20.1596 9.44805C20.3777 9.18759 20.687 9.02021 21.0243 8.98009L21.179 8.97076H22.123ZM17.8803 7.94809C18.1099 8.17768 18.2478 8.48315 18.2682 8.80718C18.2886 9.13122 18.19 9.45155 17.991 9.70809L17.8803 9.83342L16.4657 11.2481C16.2257 11.4872 15.9038 11.6261 15.5652 11.6364C15.2266 11.6467 14.8967 11.5278 14.6426 11.3038C14.3886 11.0797 14.2293 10.7674 14.1971 10.4301C14.165 10.0929 14.2625 9.75608 14.4697 9.48809L14.5803 9.36276L15.9937 7.94942C16.1175 7.82545 16.2646 7.72711 16.4264 7.66001C16.5883 7.59291 16.7618 7.55837 16.937 7.55837C17.1122 7.55837 17.2857 7.59291 17.4476 7.66001C17.6095 7.72711 17.7565 7.82412 17.8803 7.94809ZM14.431 0.928089C15.0283 2.72276 14.7083 4.68809 14.335 6.06142C14.1116 6.91791 13.8034 7.75001 13.415 8.54542C13.2571 8.86191 12.98 9.10272 12.6445 9.21487C12.3091 9.32701 11.9428 9.30131 11.6263 9.14342C11.3099 8.98553 11.069 8.70838 10.9569 8.37294C10.8448 8.0375 10.8705 7.67125 11.0283 7.35476C11.3386 6.71594 11.5842 6.04773 11.7617 5.36009C12.0643 4.25076 12.2163 3.04676 11.983 2.06009L11.9017 1.77209C11.8436 1.60534 11.8192 1.42871 11.8299 1.25245C11.8406 1.0762 11.8862 0.903824 11.9641 0.74534C12.0419 0.586855 12.1505 0.445418 12.2835 0.329238C12.4165 0.213057 12.5712 0.124449 12.7387 0.0685558C12.9062 0.0126626 13.0832 -0.00940175 13.2593 0.0036436C13.4354 0.016689 13.6071 0.064584 13.7646 0.144549C13.922 0.224513 14.062 0.334955 14.1764 0.469461C14.2908 0.603968 14.3773 0.75986 14.431 0.928089ZM21.651 4.17876C21.901 4.42879 22.0414 4.76787 22.0414 5.12142C22.0414 5.47497 21.901 5.81405 21.651 6.06409L20.7083 7.00676C20.5854 7.1341 20.4382 7.23568 20.2756 7.30556C20.1129 7.37544 19.9379 7.41222 19.7609 7.41376C19.5838 7.41529 19.4083 7.38156 19.2444 7.31452C19.0805 7.24748 18.9317 7.14847 18.8065 7.02328C18.6813 6.89809 18.5823 6.74922 18.5153 6.58536C18.4482 6.4215 18.4145 6.24593 18.416 6.06889C18.4176 5.89185 18.4543 5.71689 18.5242 5.55422C18.5941 5.39154 18.6957 5.24442 18.823 5.12142L19.7657 4.17876C20.0157 3.92879 20.3548 3.78837 20.7083 3.78837C21.0619 3.78837 21.401 3.92879 21.651 4.17876Z" fill="url(#paint0_linear_745_173)"/>
<defs>
<linearGradient id="paint0_linear_745_173" x1="12.2022" y1="0" x2="12.2022" y2="25.8278" gradientUnits="userSpaceOnUse">
<stop stop-color="#D13D3F"/>
<stop offset="0.538462" stop-color="#E3205E"/>
<stop offset="1" stop-color="#FF001A"/>
</linearGradient>
</defs>
</svg>
