<svg width="46" height="46" viewBox="0 0 46 46" fill="none" xmlns="http://www.w3.org/2000/svg">
<rect x="0.5" y="0.5" width="45" height="45" rx="22.5" fill="white"/>
<rect x="0.5" y="0.5" width="45" height="45" rx="22.5" stroke="#E5E7EB"/>
<path d="M37 23.3182C37 22.3255 36.9091 21.3709 36.7403 20.4545H23.2857V25.8764H30.974C30.6364 27.62 29.6234 29.0964 28.1039 30.0891V33.6145H32.7403C35.4416 31.1709 37 27.5818 37 23.3182Z" fill="#4285F4"/>
<path d="M23.2857 37C27.1429 37 30.3766 35.7527 32.7403 33.6145L28.1039 30.0891C26.8312 30.9291 25.2078 31.4382 23.2857 31.4382C19.5714 31.4382 16.4156 28.9818 15.2857 25.6727H10.5325V29.2873C12.8831 33.8564 17.7013 37 23.2857 37Z" fill="#34A853"/>
<path d="M15.2857 25.66C15 24.82 14.8312 23.9291 14.8312 23C14.8312 22.0709 15 21.18 15.2857 20.34V16.7255H10.5325C9.55844 18.6091 9 20.7345 9 23C9 25.2655 9.55844 27.3909 10.5325 29.2745L14.2338 26.4491L15.2857 25.66Z" fill="#FBBC05"/>
<path d="M23.2857 14.5745C25.3896 14.5745 27.2597 15.2873 28.7532 16.6618L32.8442 12.6527C30.3636 10.3873 27.1429 9 23.2857 9C17.7013 9 12.8831 12.1436 10.5325 16.7255L15.2857 20.34C16.4156 17.0309 19.5714 14.5745 23.2857 14.5745Z" fill="#EA4335"/>
</svg>
