<?xml version="1.0" encoding="UTF-8" standalone="no"?>
<svg
   width="24"
   height="24"
   viewBox="0 0 24 24"
   version="1.1"
   id="svg4"
   sodipodi:docname="mage--goals.svg"
   inkscape:version="1.4.2 (f4327f4, 2025-05-13)"
   xmlns:inkscape="http://www.inkscape.org/namespaces/inkscape"
   xmlns:sodipodi="http://sodipodi.sourceforge.net/DTD/sodipodi-0.dtd"
   xmlns="http://www.w3.org/2000/svg"
   xmlns:svg="http://www.w3.org/2000/svg">
  <defs
     id="defs4" />
  <sodipodi:namedview
     id="namedview4"
     pagecolor="#ffffff"
     bordercolor="#000000"
     borderopacity="0.25"
     inkscape:showpageshadow="2"
     inkscape:pageopacity="0.0"
     inkscape:pagecheckerboard="0"
     inkscape:deskcolor="#d1d1d1"
     inkscape:zoom="18.958333"
     inkscape:cx="12"
     inkscape:cy="12"
     inkscape:window-width="1280"
     inkscape:window-height="657"
     inkscape:window-x="-8"
     inkscape:window-y="-8"
     inkscape:window-maximized="1"
     inkscape:current-layer="svg4" />
  <g
     fill="none"
     stroke="currentColor"
     stroke-linecap="round"
     stroke-linejoin="round"
     stroke-width="1.5"
     id="g4">
    <path
       d="M10.66 10.66A1.9 1.9 0 0 0 10.1 12a1.9 1.9 0 0 0 1.9 1.9a1.9 1.9 0 0 0 1.34-.56"
       id="path1" />
    <path
       d="M12 6.3a5.7 5.7 0 1 0 5.7 5.7"
       id="path2" />
    <path
       d="M12 2.5a9.5 9.5 0 1 0 9.5 9.5m-5.975-3.524L12.95 11.05"
       id="path3" />
    <path
       d="M20.94 5.844L17.7 6.3l.456-3.24a.19.19 0 0 0-.313-.161l-2.148 2.137a1.9 1.9 0 0 0-.513 1.72l.342 1.72l1.72.341a1.9 1.9 0 0 0 1.72-.513L21.1 6.157a.19.19 0 0 0-.162-.313"
       id="path4" />
  </g>
  <path
     style="fill:#000080;stroke-width:0"
     d="M 10.997802,22.172998 C 9.874061,22.057827 8.6093538,21.699603 7.5812181,21.205263 5.8798264,20.387214 4.4471233,19.114684 3.3799935,17.473727 2.230724,15.706461 1.6327324,13.337646 1.810854,11.257918 2.093163,7.9617099 3.7580822,5.1801741 6.5262733,3.3799935 7.4726105,2.7645814 8.8106532,2.2230869 9.9692308,1.9866579 10.6047,1.8569786 11.718999,1.7454218 12.02939,1.7804073 c 0.305351,0.034418 0.524085,0.2031793 0.633009,0.4883912 0.08521,0.2231287 0.08524,0.250181 5.48e-4,0.4719567 -0.144564,0.3785353 -0.32511,0.4574494 -1.164078,0.5088004 C 10.214895,3.3281444 9.2214899,3.5941925 8.0703297,4.1677678 7.1740104,4.6143666 6.5155086,5.088887 5.8021978,5.8021978 5.088887,6.5155086 4.6143666,7.1740104 4.1677678,8.0703297 3.7843154,8.8399147 3.5706236,9.4444125 3.3939456,10.259341 3.2889786,10.743501 3.2738707,10.962512 3.2738707,12 c 0,1.303857 0.065878,1.764321 0.3961919,2.769231 0.2179503,0.663068 0.7731441,1.753009 1.1956418,2.347253 0.4561209,0.641534 1.3762779,1.561691 2.0178121,2.017811 0.9522451,0.677032 2.1773486,1.209469 3.3935285,1.474845 0.465014,0.101469 0.693592,0.116989 1.722955,0.116989 1.037488,0 1.256499,-0.01511 1.740659,-0.120074 0.814929,-0.176678 1.419426,-0.39037 2.189011,-0.773823 0.89632,-0.446599 1.554822,-0.921119 2.268132,-1.63443 0.713311,-0.71331 1.187831,-1.371812 1.63443,-2.268132 0.572337,-1.148674 0.857545,-2.209669 0.90746,-3.375824 0.0339,-0.791987 0.123843,-1.021805 0.464427,-1.186679 0.302226,-0.146305 0.553537,-0.102698 0.794011,0.137776 0.235452,0.235452 0.2635,0.426816 0.187831,1.281513 -0.289078,3.265211 -1.960809,6.044273 -4.712234,7.833551 -1.836426,1.194244 -4.273608,1.778705 -6.475925,1.552991 z"
     id="path5" />
  <path
     style="fill:#000080;stroke-width:0"
     d="m 12.643878,11.683918 c -0.179795,-0.0816 -0.24895,-0.153636 -0.335645,-0.349625 -0.195429,-0.4418 -0.152618,-0.507933 1.225684,-1.8933988 L 14.741691,8.2268434 14.585095,7.4364986 C 14.407562,6.5404848 14.39159,6.1952687 14.50714,5.7516424 c 0.171662,-0.6590537 0.328845,-0.8669461 1.668287,-2.2064988 0.765056,-0.76512 1.326685,-1.284912 1.439068,-1.3318681 0.598516,-0.2500764 1.241783,0.1887147 1.240329,0.8460652 -3.21e-4,0.1450549 -0.06974,0.7378862 -0.154257,1.3174029 -0.08452,0.5795167 -0.148566,1.0587733 -0.142325,1.0650147 0.0062,0.00624 0.485498,-0.057805 1.065015,-0.1423255 0.579516,-0.08452 1.172347,-0.1539359 1.317402,-0.1542568 0.654048,-0.00145 1.096154,0.6417835 0.8485,1.2345029 -0.04369,0.1045585 -0.595348,0.7008027 -1.331868,1.4395069 -1.343006,1.346987 -1.546421,1.5011119 -2.208933,1.6736745 -0.443708,0.1155708 -0.788852,0.099575 -1.685714,-0.078124 L 15.771441,9.2579715 14.584622,10.44244 c -1.109036,1.106837 -1.406074,1.349534 -1.646664,1.345413 -0.0372,-6.38e-4 -0.169532,-0.04741 -0.29408,-0.103935 z M 18.170191,7.9900425 C 18.356686,7.8930952 19.426344,6.8533907 19.381926,6.8122395 19.3689,6.8001713 18.968451,6.84702 18.49204,6.9163477 L 17.625838,7.0423981 17.400705,6.9334131 C 17.23685,6.8540922 17.145908,6.7631504 17.066587,6.5992952 l -0.108985,-0.2251329 0.12605,-0.866202 c 0.06933,-0.4764111 0.116177,-0.87686 0.104109,-0.8898863 -0.04155,-0.044847 -1.081325,1.0261476 -1.175213,1.2104974 -0.1684,0.3306568 -0.171647,0.5135401 -0.02302,1.2967079 l 0.141289,0.744499 0.690636,0.1371165 c 0.747916,0.1484888 1.037637,0.1448687 1.348738,-0.016852 z"
     id="path6" />
  <path
     style="fill:#000080;stroke-width:0"
     d="M 11.41978,18.402549 C 9.8467539,18.206578 8.521834,17.577335 7.4722494,16.527751 6.5632287,15.61873 5.9393735,14.446229 5.6883107,13.174939 5.5672608,12.561987 5.5678614,11.45008 5.6895801,10.825061 6.0276528,9.0890756 7.0656417,7.5562446 8.5574699,6.5899578 9.4874502,5.987591 10.70204,5.6114945 11.762637,5.5974812 c 0.414524,-0.00548 0.495944,0.00886 0.642046,0.1130755 0.09857,0.070307 0.204977,0.2179478 0.258961,0.3593035 0.08811,0.230723 0.08774,0.2493726 -0.0098,0.4847072 -0.145332,0.35067 -0.333008,0.444072 -0.991531,0.4934629 C 10.97136,7.0998533 10.401942,7.2513549 9.8028913,7.5427553 8.5256932,8.1640338 7.5989786,9.2884036 7.1897666,10.713229 7.0873927,11.069682 7.0700176,11.255042 7.0691479,12 c -8.78e-4,0.752075 0.015373,0.926913 0.1196026,1.286771 0.5082389,1.754718 1.7697605,3.01624 3.5244785,3.524478 0.358929,0.103961 0.536638,0.120619 1.286771,0.120619 0.750133,0 0.927842,-0.01666 1.286771,-0.120619 1.43021,-0.414248 2.552712,-1.340132 3.169275,-2.614145 0.299959,-0.619809 0.448978,-1.174619 0.497285,-1.851428 0.04762,-0.66715 0.139263,-0.853294 0.492102,-0.999525 0.235334,-0.09753 0.253984,-0.09791 0.484707,-0.0098 0.37852,0.144559 0.479626,0.331097 0.47406,0.874633 -0.01547,1.510878 -0.661965,3.037211 -1.783849,4.211569 -1.197642,1.25366 -2.682089,1.917793 -4.429132,1.981568 -0.322753,0.01178 -0.6699,0.01107 -0.771439,-0.0016 z"
     id="path7" />
  <path
     style="fill:#000080;stroke-width:0"
     d="m 11.498901,14.579282 c -0.436683,-0.08764 -0.990077,-0.394039 -1.342728,-0.743423 -1.023802,-1.014319 -1.02914,-2.654424 -0.01187,-3.646566 0.254033,-0.2477582 0.530763,-0.3044118 0.818947,-0.167659 0.452636,0.214789 0.542299,0.875871 0.161537,1.190999 -0.152809,0.126468 -0.282847,0.481638 -0.28407,0.775874 -0.0028,0.683205 0.479272,1.169616 1.159281,1.169616 0.306169,0 0.657785,-0.126341 0.787367,-0.282912 0.204533,-0.247133 0.6484,-0.315195 0.93114,-0.14278 0.394335,0.240465 0.437718,0.768995 0.0922,1.123264 -0.574345,0.588893 -1.515378,0.883433 -2.311806,0.723587 z"
     id="path8" />
</svg>
