<svg width="24" height="24" viewBox="0 0 24 24" fill="none" xmlns="http://www.w3.org/2000/svg">
<path d="M10.66 10.66C10.3032 11.0149 10.1018 11.4968 10.1 12C10.1 12.5039 10.3002 12.9872 10.6565 13.3435C11.0128 13.6999 11.4961 13.9 12 13.9C12.5032 13.8982 12.9851 13.6968 13.34 13.34" stroke="black" stroke-width="1.5" stroke-linecap="round" stroke-linejoin="round"/>
<path d="M12 6.30005C10.8726 6.30005 9.7706 6.63435 8.83324 7.26067C7.89588 7.887 7.1653 8.77721 6.73388 9.81875C6.30246 10.8603 6.18958 12.0064 6.40951 13.1121C6.62945 14.2178 7.17232 15.2334 7.96948 16.0306C8.76664 16.8277 9.78228 17.3706 10.888 17.5905C11.9937 17.8105 13.1397 17.6976 14.1813 17.2662C15.2228 16.8347 16.113 16.1042 16.7394 15.1668C17.3657 14.2294 17.7 13.1274 17.7 12" stroke="black" stroke-width="1.5" stroke-linecap="round" stroke-linejoin="round"/>
<path d="M12 2.5C10.1211 2.5 8.28435 3.05717 6.72209 4.10104C5.15982 5.14491 3.94218 6.62861 3.22315 8.36451C2.50412 10.1004 2.31598 12.0105 2.68254 13.8534C3.0491 15.6962 3.95389 17.3889 5.28249 18.7175C6.61109 20.0461 8.30383 20.9509 10.1466 21.3175C11.9895 21.684 13.8996 21.4959 15.6355 20.7769C17.3714 20.0578 18.8551 18.8402 19.899 17.2779C20.9428 15.7157 21.5 13.8789 21.5 12M15.525 8.476L12.95 11.05" stroke="black" stroke-width="1.5" stroke-linecap="round" stroke-linejoin="round"/>
<path d="M20.94 5.84397L17.7 6.29997L18.156 3.05997C18.1593 3.02234 18.1514 2.98456 18.1331 2.95147C18.1149 2.91838 18.0872 2.89147 18.0536 2.87419C18.02 2.85691 17.982 2.85004 17.9445 2.85445C17.907 2.85887 17.8716 2.87437 17.843 2.89897L15.695 5.03597C15.4743 5.25819 15.3121 5.5315 15.2226 5.83158C15.1331 6.13166 15.1191 6.4492 15.182 6.75597L15.524 8.47597L17.244 8.81697C17.5507 8.87982 17.8683 8.86588 18.1684 8.77638C18.4684 8.68688 18.7418 8.5246 18.964 8.30397L21.1 6.15697C21.1247 6.12824 21.1402 6.09278 21.1446 6.05515C21.149 6.01752 21.142 5.97944 21.1246 5.94579C21.1072 5.91215 21.0801 5.88447 21.0469 5.86633C21.0136 5.84819 20.9757 5.8404 20.938 5.84397" stroke="black" stroke-width="1.5" stroke-linecap="round" stroke-linejoin="round"/>
</svg>
