<?xml version="1.0" encoding="UTF-8" standalone="no"?>
<svg
   width="24"
   height="24"
   viewBox="0 0 24 24"
   version="1.1"
   id="svg2"
   sodipodi:docname="mynaui--home--active.svg"
   inkscape:version="1.4.2 (f4327f4, 2025-05-13)"
   xmlns:inkscape="http://www.inkscape.org/namespaces/inkscape"
   xmlns:sodipodi="http://sodipodi.sourceforge.net/DTD/sodipodi-0.dtd"
   xmlns="http://www.w3.org/2000/svg"
   xmlns:svg="http://www.w3.org/2000/svg">
  <defs
     id="defs2" />
  <sodipodi:namedview
     id="namedview2"
     pagecolor="#ffffff"
     bordercolor="#000000"
     borderopacity="0.25"
     inkscape:showpageshadow="2"
     inkscape:pageopacity="0.0"
     inkscape:pagecheckerboard="0"
     inkscape:deskcolor="#d1d1d1"
     showgrid="false"
     inkscape:zoom="18.958333"
     inkscape:cx="12"
     inkscape:cy="10.47033"
     inkscape:window-width="1280"
     inkscape:window-height="657"
     inkscape:window-x="-8"
     inkscape:window-y="-8"
     inkscape:window-maximized="1"
     inkscape:current-layer="svg2" />
  <g
     fill="none"
     stroke="currentColor"
     stroke-linecap="round"
     stroke-linejoin="round"
     stroke-width="1.5"
     id="g2">
    <path
       id="path2"
       style="baseline-shift:baseline;display:inline;overflow:visible;opacity:1;vector-effect:none;fill:#003458;stroke:none;stroke-linecap:butt;stroke-linejoin:miter;enable-background:accumulate;stop-color:#000000;stop-opacity:1;fill-opacity:1"
       d="m 12,2.2519531 c -0.643889,0 -1.286975,0.2168248 -1.810547,0.6503907 L 4.3242188,7.71875 C 3.6422549,8.2791757 3.25,9.1210095 3.25,10.007812 v 8.802735 C 3.25,20.415175 4.5388532,21.75 6.1328125,21.75 H 9.5 h 5 3.367188 C 19.461147,21.75 20.75,20.415175 20.75,18.810547 V 10.007812 C 20.75,9.1210095 20.357084,8.2791275 19.673828,7.71875 L 13.810547,2.9023438 C 13.286975,2.4687774 12.643889,2.2519531 12,2.2519531 Z M 11.5,14.25 h 1 c 0.699239,0 1.25,0.550761 1.25,1.25 v 4.75 h -3.5 V 15.5 c 0,-0.699239 0.550761,-1.25 1.25,-1.25 z"
       sodipodi:nodetypes="sccsssccsssccssssccss" />
  </g>
  <rect
     style="fill:#ffffff;fill-opacity:1;stroke-width:1.01588"
     id="rect8"
     width="3.4839694"
     height="1.6351643"
     x="10.25934"
     y="20.254944" />
</svg>
