<?xml version="1.0" encoding="UTF-8" standalone="no"?>
<svg
   width="24"
   height="24"
   viewBox="0 0 24 24"
   version="1.1"
   id="svg1"
   sodipodi:docname="uil--chart--active.svg"
   inkscape:version="1.4.2 (f4327f4, 2025-05-13)"
   xmlns:inkscape="http://www.inkscape.org/namespaces/inkscape"
   xmlns:sodipodi="http://sodipodi.sourceforge.net/DTD/sodipodi-0.dtd"
   xmlns="http://www.w3.org/2000/svg"
   xmlns:svg="http://www.w3.org/2000/svg">
  <defs
     id="defs1" />
  <sodipodi:namedview
     id="namedview1"
     pagecolor="#ffffff"
     bordercolor="#000000"
     borderopacity="0.25"
     inkscape:showpageshadow="2"
     inkscape:pageopacity="0.0"
     inkscape:pagecheckerboard="0"
     inkscape:deskcolor="#d1d1d1"
     inkscape:zoom="18.958333"
     inkscape:cx="12"
     inkscape:cy="12"
     inkscape:window-width="1280"
     inkscape:window-height="657"
     inkscape:window-x="-8"
     inkscape:window-y="-8"
     inkscape:window-maximized="1"
     inkscape:current-layer="svg1" />
  <path
     fill="currentColor"
     d="m 12,6 c -0.552285,0 -1,0.4477153 -1,1 v 10 c 0,1.333333 2,1.333333 2,0 V 7 C 13,6.4477153 12.552285,6 12,6 m -5,6 c -0.5522847,0 -1,0.447715 -1,1 v 4 c 0,1.333333 2,1.333333 2,0 V 13 C 8,12.447715 7.5522847,12 7,12 m 10,-2 c -0.552285,0 -1,0.447715 -1,1 v 6 c 0,1.333333 2,1.333333 2,0 v -6 c 0,-0.552285 -0.447715,-1 -1,-1 M 19,2 H 5 C 3.3431458,2 2,3.3431458 2,5 v 14 c 0,1.656854 1.3431458,3 3,3 h 14 c 1.656854,0 3,-1.343146 3,-3 V 5 C 22,3.3431458 20.656854,2 19,2 m 1,17 c 0,0.552285 -0.447715,1 -1,1 H 5 C 4.4477153,20 4,19.552285 4,19 V 5 C 4,4.4477153 4.4477153,4 5,4 h 14 c 0.552285,0 1,0.4477153 1,1 z"
     id="path1"
     style="fill:#0000ff;fill-opacity:1"
     sodipodi:nodetypes="cssssccssssccssssccssssssscsssssssss" />
  <path
     style="fill:#ffffff;fill-opacity:1;stroke-width:0"
     d="m 6.5934066,17.885678 c -0.1965738,-0.08774 -0.4236162,-0.325885 -0.4977432,-0.522079 -0.076979,-0.203742 -0.076979,-4.51027 0,-4.714011 0.2089961,-0.553154 0.8938435,-0.775554 1.4068959,-0.45688 0.1463257,0.09089 0.2852571,0.233423 0.3520054,0.361138 0.1053609,0.201595 0.1110091,0.301405 0.1268618,2.241758 0.018333,2.243966 0.00296,2.499736 -0.165535,2.753383 -0.2310689,0.34785 -0.828718,0.512452 -1.2224849,0.336691 z"
     id="path2" />
  <path
     style="fill:#ffffff;fill-opacity:1;stroke-width:0"
     d="m 11.520384,17.837801 c -0.144926,-0.07645 -0.276839,-0.200604 -0.350286,-0.32967 l -0.117813,-0.207032 -7.86e-4,-5.274725 C 11.050618,6.1137825 11.020804,6.5612313 11.437863,6.2279263 11.619482,6.0827801 11.67794,6.0659341 12,6.0659341 c 0.32206,0 0.380518,0.016846 0.562137,0.1619922 0.417059,0.333305 0.387245,-0.1141438 0.386364,5.7984477 l -7.86e-4,5.274725 -0.117813,0.207032 c -0.241421,0.424243 -0.843111,0.575719 -1.309518,0.32967 z"
     id="path3" />
  <path
     style="fill:#ffffff;fill-opacity:1;stroke-width:0"
     d="M 16.552939,17.857927 C 16.414093,17.794889 16.277165,17.674495 16.183708,17.53328 L 16.035165,17.308827 V 14.034633 10.76044 l 0.139883,-0.23793 c 0.352862,-0.6001911 1.151986,-0.643662 1.597026,-0.08688 l 0.161992,0.202667 0.01547,3.225904 c 0.0085,1.774247 0.0014,3.303554 -0.01579,3.39846 -0.03885,0.214464 -0.311324,0.531873 -0.53782,0.62651 -0.238441,0.09963 -0.582843,0.08686 -0.842986,-0.03125 z"
     id="path4" />
  <path
     style="fill:#000080;fill-opacity:1;stroke-width:0"
     d="M 4.4307692,21.914952 C 3.400471,21.701156 2.5265206,20.927681 2.1790793,19.922133 L 2.0571429,19.569231 V 12 4.4307692 L 2.177642,4.0821858 C 2.4820276,3.2016501 3.2002823,2.4823061 4.0778667,2.1790793 L 4.4307692,2.0571429 H 12 19.569231 l 0.352902,0.1219364 c 0.877585,0.3032268 1.595839,1.0225708 1.900225,1.9031065 l 0.120499,0.3485834 V 12 19.569231 l -0.121936,0.352902 c -0.300362,0.869291 -0.983371,1.557775 -1.886674,1.901797 l -0.312269,0.118927 -7.49011,0.0079 c -4.1195603,0.0044 -7.5850548,-0.01176 -7.7010988,-0.03584 z M 19.864097,19.551487 C 19.086266,6.5094542 15.185119,4.237757 4.6340541,4.0087912 3.3260833,4.8743654 4.0283236,19.471709 4.2783297,19.7216 4.6693884,20.112477 19.921773,20.518558 19.864097,19.551487 Z"
     id="path5"
     sodipodi:nodetypes="cscccsscccsscccssccccscss" />
  <path
     style="fill:#000080;fill-opacity:1;stroke-width:0"
     d="m 4.167033,19.484596 c 0,0 -4.52159726,-17.6997236 1.1562936,-16.2461082 13.6758254,-3.25811382 15.6389604,2.3080797 14.5423064,16.1725012 3.305489,1.041763 -15.6986,3.773581 -15.6986,0.07361 z m 3.3335425,-1.58197 c 0.1586032,-0.07678 0.2724824,-0.185569 0.3726975,-0.356044 l 0.1443094,-0.245483 0.015386,-2.175207 c 0.010313,-1.458044 -0.00367,-2.245959 -0.042399,-2.389803 -0.067617,-0.25111 -0.355508,-0.590528 -0.579618,-0.683357 -0.092106,-0.03815 -0.296634,-0.05621 -0.4941974,-0.04363 -0.3983259,0.02536 -0.6560356,0.188254 -0.826511,0.522413 -0.1029087,0.201718 -0.1060755,0.289533 -0.091821,2.546161 l 0.014764,2.337238 0.147886,0.193833 c 0.3035369,0.397842 0.8686329,0.52182 1.3395027,0.293876 z m 4.9362835,0.03794 c 0.205265,-0.08783 0.432889,-0.322146 0.509236,-0.524216 0.03828,-0.101302 0.0561,-1.824243 0.0561,-5.421881 0,-5.0705499 -0.0038,-5.2809207 -0.09988,-5.4690938 -0.123372,-0.2417268 -0.243196,-0.3527326 -0.493761,-0.4574255 -0.38224,-0.1597103 -0.910631,-0.060543 -1.153843,0.2165514 -0.269343,0.3068665 -0.25691,0.028987 -0.25691,5.7418769 0,4.465021 0.0118,5.328921 0.07441,5.448773 0.09568,0.183145 0.33731,0.411933 0.505808,0.478924 0.194183,0.0772 0.664103,0.06981 0.858837,-0.01351 z m 5.03777,-0.02774 c 0.236233,-0.121148 0.406495,-0.296416 0.482297,-0.49648 0.03763,-0.09931 0.05626,-1.222213 0.05626,-3.390705 0,-3.449876 -9.2e-5,-3.451237 -0.252561,-3.730422 -0.248979,-0.275325 -0.814559,-0.3840999 -1.18732,-0.228351 -0.230004,0.0961 -0.494802,0.408306 -0.563875,0.664823 -0.03809,0.141456 -0.05173,1.247852 -0.04178,3.389704 l 0.01477,3.179704 0.131868,0.233659 c 0.247483,0.438519 0.892764,0.617856 1.360343,0.378068 z"
     id="path6"
     sodipodi:nodetypes="sccsscscscsscsssssscssscsssssssssscssss" />
</svg>
